<?xml version="1.0" encoding="utf-8"?>
<!-- Generator: Adobe Illustrator 26.0.3, SVG Export Plug-In . SVG Version: 6.00 Build 0)  -->
<svg version="1.1" id="Слой_1" xmlns="http://www.w3.org/2000/svg" xmlns:xlink="http://www.w3.org/1999/xlink" x="0px" y="0px"
	 viewBox="0 0 368.5 368.5" style="enable-background:new 0 0 368.5 368.5;" xml:space="preserve">
<style type="text/css">
	.st0{fill:none;}
	.st1{display:none;}
	.st2{display:inline;}
	.st3{display:inline;fill:#EE1D52;}
	.st4{display:inline;fill:#FFFFFF;}
	.st5{fill:#69C9D0;}
	.st6{display:inline;fill:none;}
	.st7{display:inline;fill:#69C9D0;}
	.st8{fill:#FCB813;}
	.st9{fill:#0B0204;}
	.st10{fill:#FFFFFF;}
	.st11{display:inline;fill:#F9A11B;}
</style>
<rect class="st0" width="368.5" height="368.5"/>
<image style="display:none;overflow:visible;" width="2048" height="2048" xlink:href="EE558C2C.png"  transform="matrix(0.1176 0 0 0.1176 63.7795 63.7795)">
</image>
<g class="st1">
	<path class="st2" d="M63.8,63.8h240.9v240.9H63.8V63.8z"/>
	<path class="st3" d="M122.8,213.9l0.5,1.4C123.2,215.1,123.1,214.6,122.8,213.9z M142.4,182.3c0.9-7.5,3.8-11.7,9.4-16
		c8-5.8,17.9-2.5,17.9-2.5v-19.5c2.4-0.1,4.8,0.1,7.2,0.5v25.1c0,0-9.9-3.3-17.9,2.5c-5.5,4.3-8.5,8.5-9.4,16c0,4.1,0.7,9.4,4.1,14
		c-0.8-0.5-1.7-1-2.6-1.5C143.7,195.6,142.3,187.8,142.4,182.3z M217.8,108.1c-5.5-6.2-7.5-12.6-8.3-17h6.9c0,0-1.4,11.6,8.6,23
		l0.2,0.2C222.4,112.5,219.9,110.4,217.8,108.1L217.8,108.1z M250.9,125.8v24.6c0,0-8.8-0.4-15.3-2.1c-9.1-2.4-14.9-6.1-14.9-6.1
		s-4-2.7-4.3-2.8v50.9c0,2.8-0.8,9.9-3,15.8c-3,7.7-7.5,12.8-8.4,13.8c0,0-5.6,6.9-15.4,11.5c-8.8,4.2-16.6,4.1-18.9,4.2
		c0,0-13.4,0.5-25.5-7.6c-2.6-1.8-5.1-3.9-7.3-6.1l0.1,0.1c12.1,8.2,25.5,7.6,25.5,7.6c2.3-0.1,10.1,0,18.9-4.2
		c9.8-4.6,15.4-11.5,15.4-11.5c0.8-1,5.4-6.1,8.4-13.8c2.3-5.9,3-13,3-15.8v-50.9c0.3,0.2,4.3,2.8,4.3,2.8s5.8,3.7,14.9,6.1
		c6.5,1.7,15.3,2.1,15.3,2.1v-19.3C246.7,125.8,249.2,125.9,250.9,125.8z"/>
	<path class="st4" d="M243.6,125v19.3c0,0-8.8-0.4-15.3-2.1c-9.1-2.4-14.9-6.1-14.9-6.1s-4-2.7-4.3-2.8v50.9c0,2.8-0.8,9.9-3,15.8
		c-3,7.7-7.5,12.8-8.4,13.8c0,0-5.6,6.9-15.4,11.5c-8.8,4.2-16.6,4.1-18.9,4.2c0,0-13.4,0.5-25.5-7.6l-0.1-0.1
		c-1.3-1.3-2.5-2.7-3.6-4.1c-3.9-4.9-6.2-10.7-6.8-12.3v0c-1-2.9-3-9.8-2.7-16.4c0.5-11.8,4.5-19,5.5-20.8
		c2.8-4.9,6.4-9.4,10.7-13.1c3.8-3.2,8.1-5.8,12.7-7.5c5-2.1,10.4-3.2,15.8-3.3v19.5c0,0-9.9-3.3-17.9,2.5c-5.5,4.3-8.5,8.5-9.4,16
		c0,5.5,1.3,13.3,8.7,18.5c0.9,0.6,1.7,1.1,2.6,1.5c1.3,1.7,2.9,3.3,4.7,4.5c7.3,4.8,13.3,5.1,21.1,2c5.2-2.1,9.1-6.7,10.9-12
		c1.1-3.3,1.1-6.5,1.1-9.9v-96h18.1c0.8,4.4,2.8,10.8,8.3,17c2.2,2.3,4.7,4.5,7.3,6.2c0.8,0.9,4.8,5.1,10.1,7.7
		C237.9,123.3,240.7,124.3,243.6,125L243.6,125z"/>
	<g class="st2">
		<path class="st5" d="M120.4,199.4l0.5,1.3C120.8,200.6,120.6,200.1,120.4,199.4z"/>
		<path class="st5" d="M153.8,147.5c-4.6,1.8-8.9,4.3-12.7,7.5c-4.3,3.7-7.9,8.2-10.7,13.1c-1.1,1.8-5,9-5.5,20.8
			c-0.3,6.7,1.7,13.6,2.7,16.4v0c0.6,1.6,3,7.4,6.8,12.3c1.1,1.4,2.3,2.8,3.6,4.1c-4.1-2.8-7.7-6.2-10.8-10.1
			c-3.8-4.8-6.2-10.6-6.8-12.3v-0.1c-1-2.9-3-9.8-2.7-16.5c0.5-11.8,4.5-19,5.5-20.8c2.8-4.9,6.4-9.4,10.7-13.1
			c3.8-3.2,8.1-5.8,12.7-7.5c2.9-1.2,5.9-2.1,9-2.7c4.6-0.8,9.4-0.9,14-0.2v5.6C164.2,144.3,158.8,145.4,153.8,147.5L153.8,147.5z"
			/>
		<path class="st5" d="M209.5,91.1h-18.1v96c0,3.4,0,6.6-1.1,9.9c-1.8,5.2-5.7,9.9-10.9,12c-7.8,3.1-13.9,2.8-21.1-2
			c-1.8-1.2-3.4-2.8-4.7-4.5c6.2,3.3,11.7,3.2,18.5,0.5c5.2-2.1,9.1-6.8,10.9-12c1.1-3.3,1.1-6.5,1.1-9.9V85h25
			C209.1,85,208.9,87.4,209.5,91.1z M243.6,119.7v5.3c-2.9-0.7-5.8-1.7-8.5-3.1c-5.2-2.6-9.3-6.8-10.1-7.7c0.9,0.6,1.9,1.1,2.9,1.7
			C234.3,119.1,240.6,120,243.6,119.7z"/>
	</g>
	<path class="st6" d="M210.4,275.1c-0.2-0.7-0.3-1.3-0.3-2V273C210.1,273.7,210.2,274.4,210.4,275.1z M225.3,273L225.3,273
		c0,0.8-0.1,1.4-0.3,2.1C225.2,274.4,225.3,273.7,225.3,273z"/>
	<path class="st7" d="M210.1,273c0,0.7,0.1,1.4,0.3,2c0,0.1,0,0.1,0,0.2c1,3.2,3.9,5.4,7.3,5.4v7.7c-3.8,0-6.4,0.1-10.5-2.3
		c-4.6-2.8-7.3-7.8-7.3-13c0-5.4,2.9-10.8,7.9-13.4c3.6-1.9,6.4-1.9,9.9-1.9v7.7C213.5,265.3,210.1,268.7,210.1,273L210.1,273z"/>
	<path class="st3" d="M225.4,273c0,0.7-0.1,1.4-0.3,2c0,0.1,0,0.1,0,0.2c-1,3.2-3.9,5.4-7.3,5.4v7.7c3.7,0,6.4,0.1,10.5-2.3
		c4.7-2.8,7.3-7.8,7.3-13c0-5.4-2.9-10.8-7.9-13.4c-3.6-1.9-6.4-1.9-9.9-1.9v7.7C222,265.3,225.4,268.7,225.4,273L225.4,273
		L225.4,273z"/>
	<path class="st4" d="M99.8,250.6H128l-2.6,7.8H118v29.7h-9.1v-29.7h-9.2V250.6z M174.6,250.6v7.8h9.2v29.7h9.1v-29.7h7.4l2.6-7.8
		H174.6z M134.1,259.5c2.4,0,4.4-2,4.4-4.4c0-2.4-2-4.4-4.4-4.4c-2.4,0-4.4,2-4.4,4.4C129.7,257.5,131.7,259.5,134.1,259.5z
		 M129.7,288.1h8.9v-25.5h-8.9V288.1z M170.7,259.2h-10.4l-9,9v-17.6h-8.9l0,37.4h8.9v-9.8l2.8-2.5l8.7,12.3h9.5l-12.6-18
		L170.7,259.2z M256.2,270.1l10.9-10.9h-10.4l-9,9v-17.6h-8.9l-0.1,37.5h8.9v-9.8l2.8-2.5l8.7,12.3h9.5L256.2,270.1z M233.3,272.9
		c0,8.5-7,15.3-15.5,15.3c-8.6,0-15.5-6.9-15.5-15.3c0-8.5,7-15.3,15.5-15.3C226.3,257.6,233.3,264.5,233.3,272.9z M225.3,272.9
		c0-4.2-3.4-7.6-7.6-7.6s-7.6,3.4-7.6,7.6c0,4.2,3.4,7.6,7.6,7.6S225.3,277.1,225.3,272.9z"/>
</g>
<image style="display:none;overflow:visible;" width="1200" height="394" xlink:href="1200px-DTF_logo.svg.png"  transform="matrix(0.2244 0 0 0.2244 49.6063 140.0433)">
</image>
<g class="st1">
	<g class="st2">
		<polygon class="st8" points="35.4,145.5 35.4,175.8 61.7,191 88,175.8 88,145.5 61.7,130.3 		"/>
		<polygon class="st9" points="305.8,175.8 305.8,145.5 279.6,130.3 253.3,145.5 253.3,175.8 279.6,191 		"/>
		<polygon class="st9" points="251.4,175.8 251.4,145.5 225.1,130.3 198.8,145.5 198.8,175.8 225.1,191 		"/>
		<polygon class="st9" points="196.9,175.8 196.9,145.5 170.6,130.3 144.4,145.5 144.4,175.8 170.6,191 		"/>
		<polygon class="st9" points="89.9,145.5 89.9,175.8 116.2,191 142.4,175.8 142.4,145.5 116.2,130.3 		"/>
		<polygon class="st9" points="333.1,223 333.1,192.7 306.8,177.5 280.5,192.7 280.5,223 306.8,238.2 		"/>
		<polygon class="st9" points="278.6,223 278.6,192.7 252.3,177.5 226.1,192.7 226.1,223 252.3,238.2 		"/>
		<polygon class="st9" points="224.1,223 224.1,192.7 197.9,177.5 171.6,192.7 171.6,223 197.9,238.2 		"/>
		<polygon class="st9" points="117.1,192.7 117.1,223 143.4,238.2 169.7,223 169.7,192.7 143.4,177.5 		"/>
		<polygon class="st9" points="62.7,192.7 62.7,223 88.9,238.2 115.2,223 115.2,192.7 88.9,177.5 		"/>
		<path class="st9" d="M66.3,148.8v9.2c0,0.3-0.2,0.6-0.6,0.6h-8.1c-0.3,0-0.6-0.2-0.6-0.6v-9.2c0-0.3-0.2-0.6-0.6-0.6H51
			c-0.3,0-0.6,0.2-0.6,0.6v24.6c0,0.3,0.2,0.6,0.6,0.6h5.6c0.3,0,0.6-0.2,0.6-0.6v-8.8c0-0.3,0.2-0.6,0.6-0.6h8.1
			c0.3,0,0.6,0.2,0.6,0.6v8.8c0,0.3,0.2,0.6,0.6,0.6h5.6c0.3,0,0.6-0.2,0.6-0.6v-24.6c0-0.3-0.2-0.6-0.6-0.6h-5.6
			C66.5,148.3,66.3,148.5,66.3,148.8z"/>
		<path class="st10" d="M116.9,148h-1.3c-6.4,0-11.6,5.2-11.6,11.6v3.1c0,6.4,5.2,11.6,11.6,11.6h1.3c6.4,0,11.6-5.2,11.6-11.6v-3.1
			C128.5,153.2,123.3,148,116.9,148z M121.8,162.7c0,2.9-2.4,5.3-5.3,5.3h-0.6c-2.9,0-5.3-2.4-5.3-5.3v-3.2c0-2.9,2.4-5.3,5.3-5.3
			h0.6c2.9,0,5.3,2.4,5.3,5.3V162.7z"/>
		<path class="st10" d="M291.9,148.3h-6.3c-0.2,0-0.3,0.1-0.4,0.2l-5.3,10.1c-0.1,0.2-0.5,0.2-0.6,0l-5.3-10.1
			c-0.1-0.2-0.2-0.2-0.4-0.2h-6.3c-0.4,0-0.6,0.4-0.4,0.7l9.3,17.1c0,0.1,0.1,0.1,0.1,0.2v7.2c0,0.3,0.2,0.5,0.5,0.5h5.8
			c0.3,0,0.5-0.2,0.5-0.5v-7.1c0-0.1,0-0.2,0.1-0.2l9.4-17.3C292.5,148.6,292.2,148.3,291.9,148.3z"/>
		<path class="st10" d="M261.3,199.2v-4.7c0-0.3-0.3-0.6-0.6-0.6h-10.7h-6.1c-0.3,0-0.6,0.3-0.6,0.6v5.3v4.5v5.4v4v5.3
			c0,0.3,0.3,0.6,0.6,0.6h6.1h10.7c0.3,0,0.6-0.3,0.6-0.6v-4.7c0-0.3-0.3-0.6-0.6-0.6h-10c-0.3,0-0.6-0.3-0.6-0.6v-2.8
			c0-0.3,0.3-0.6,0.6-0.6h7.2c0.3,0,0.6-0.3,0.6-0.6V205c0-0.3-0.3-0.6-0.6-0.6h-7.2c-0.3,0-0.6-0.3-0.6-0.6v-3.3
			c0-0.3,0.3-0.6,0.6-0.6h10C261.1,199.8,261.3,199.6,261.3,199.2z"/>
		<path class="st10" d="M297.2,216l3.1-4c0.2-0.3,0.7-0.4,1-0.1c0.8,0.6,2.4,1.7,4,1.9c3,0.5,4.1-0.7,4.3-1.6c0.2-1.2-1.1-1.9-2-2
			c-1-0.2-2.5-0.4-4.3-0.9c-7.3-1.9-6.7-10-2.4-13.6c3.7-2.7,9.6-2.2,13.3,0.6c0.2,0.2,0.4,0.3,0.5,0.4c0.2,0.2,0.2,0.5,0.1,0.7
			l-3.2,4.3c-0.2,0.3-0.6,0.3-0.9,0.1c-0.7-0.5-2-1.4-3.5-1.4c-2.3,0-2.5,1.2-2.5,1.2s-0.5,1.4,1.2,2c1.7,0.6,4.3,0.7,6,1.5
			c1.8,0.8,4.7,2.1,4.7,7c0,4.9-4.4,6.9-4.4,6.9s-7.2,3.7-14.7-1.8C297,216.9,296.9,216.4,297.2,216z"/>
		<path class="st8" d="M100.1,212c0,6.1-6.7,8.6-10.8,8.4c-5-0.3-9.8-3.2-11-8.8c-0.7-3.3-0.8-6.6,0.3-9.9c1.6-4.8,5.2-7.3,10.1-7.9
			c3.3-0.4,6.3,0.3,9,2.3c0.8,0.6,0.8,0.8,0.2,1.5c-0.9,1.1-1.8,2.3-2.6,3.4c-0.5,0.6-0.9,0.7-1.5,0.2c-1.4-1-2.9-1.4-4.6-1.1
			c-2.4,0.4-4,2.1-4.3,4.6c-0.2,1.7-0.2,3.6,0.1,5.3c0.8,4.4,5.6,5.1,8.6,2.9c0.2-0.1,0.3-0.2,0.3-0.8c0-0.3,0-1.1,0-1.2
			c0-0.1,0-0.3-0.3-0.3c-1,0-2,0-2.7,0c-0.6,0-0.9-0.3-0.9-0.9c0-1,0-2,0-3c0-0.7,0.3-1,0.9-1c3,0,5.3,0,8.3,0c0.7,0,0.9,0.3,0.9,1
			C100.1,208.5,100.1,210.1,100.1,212z"/>
		<path class="st10" d="M134.9,208.9c-1.1,3.3-2.2,6.5-3.3,9.8c-0.1,0.4-0.1,0.6-0.1,0.7c0.1,0.1,0.3,0.2,0.6,0.2c0.9,0,1.7,0,2.6,0
			c0.3,0,0.7,0,1,0c0.7,0,1.3,0,2,0c0,0,0,0,0,0c0.5,0,0.8-0.2,0.9-0.7c0.1-0.4,0.2-0.8,0.3-1.2c0.1-0.5,0.3-1,0.4-1.5
			c0.1-0.5,0.4-0.8,0.9-0.8c0,0,0,0,0,0c2,0,4.2,0,6.6,0c0,0,0,0,0,0c0.5,0,0.8,0.2,0.9,0.7c0.1,0.6,0.3,1.2,0.5,1.8
			c0.1,0.3,0.2,0.6,0.3,0.9c0.1,0.5,0.4,0.7,0.9,0.7c0,0,0,0,0,0c1.8,0,3.6,0,5.6,0c0,0,0,0,0,0c0.3,0,0.5-0.1,0.6-0.2
			c0.1-0.1,0.1-0.3,0-0.6c-0.2-0.5-0.3-1-0.5-1.6l-1.9-5.6c-1.8-5.5-3.7-11-5.5-16.5c-0.3-0.8-0.6-1-1.3-1c-0.7,0-1.3,0-2,0
			c-0.6,0-1.2,0-1.8,0c-0.7,0-1.4,0-2.1,0c-0.6,0-1,0.2-1.1,0.8C138,199.6,136.5,204.2,134.9,208.9z M143.4,201.8
			c0.1-0.3,0.4-0.4,0.5,0c0.1,0.3,2,7.5,2,7.5c0.1,0.3-0.1,0.5-0.4,0.5h-3.7c-0.3,0-0.5-0.3-0.4-0.5
			C141.5,209.2,143.4,202.1,143.4,201.8z"/>
		<path class="st10" d="M180.8,162.4c-0.6-1.1-1.5-2-2.3-2.6c-0.3-0.2-0.4-0.7-0.2-1c1.4-2.4,1.5-4.8-0.3-7.5
			c-2-2.9-5.9-2.9-5.9-2.9h-4.2h-1.2h-4.2c-0.4,0-0.6,0.3-0.6,0.6v24.4c0,0.4,0.3,0.6,0.6,0.6h5.1h0.3c0.9,0,3.5,0,5.8,0
			c2.9,0,5.3-1.6,6.5-3.3C182.1,167.7,181.7,164.1,180.8,162.4z M168.5,154.7c0-0.2,0.2-0.4,0.4-0.4h1.7c0.7,0,2,0.4,2,1.9
			c0,0.1,0,0.6,0,0.7c0,0.6-0.3,1.8-1.9,1.8h-1.8c-0.2,0-0.4-0.2-0.4-0.5V154.7z M174.5,166.2c0,0.6-0.3,1.8-1.9,1.8h-3.7
			c-0.2,0-0.4-0.2-0.4-0.4V164c0-0.2,0.2-0.4,0.4-0.4h3.5c0.7,0,2,0.4,2,1.9C174.5,165.6,174.5,166.1,174.5,166.2z"/>
		<path class="st10" d="M236.1,162.4c-0.6-1.1-1.5-2-2.3-2.6c-0.3-0.2-0.4-0.7-0.2-1c1.4-2.4,1.5-4.8-0.3-7.5
			c-2-2.9-5.9-2.9-5.9-2.9h-4.2H222h-4.2c-0.4,0-0.6,0.3-0.6,0.6v24.4c0,0.4,0.3,0.6,0.6,0.6h5.1h0.3c0.9,0,3.5,0,5.8,0
			c2.9,0,5.3-1.6,6.5-3.3C237.4,167.7,237,164.1,236.1,162.4z M223.8,154.7c0-0.2,0.2-0.4,0.4-0.4h1.7c0.7,0,2,0.4,2,1.9
			c0,0.1,0,0.6,0,0.7c0,0.6-0.3,1.8-1.9,1.8h-1.8c-0.2,0-0.4-0.2-0.4-0.5V154.7z M229.8,166.2c0,0.6-0.3,1.8-1.9,1.8h-3.7
			c-0.2,0-0.4-0.2-0.4-0.4V164c0-0.2,0.2-0.4,0.4-0.4h3.5c0.7,0,2,0.4,2,1.9C229.8,165.6,229.8,166.1,229.8,166.2z"/>
		<path class="st10" d="M210.6,194h-3.8c0,0,0,0-0.1,0c-0.4,0-0.7,0-1.1,0c-1.1,0-1.4,0.1-1.8,1.1c-1.8,3.8-3.7,7.8-5.5,11.5
			c-0.1,0.3-0.3,0.5-0.5,0.8c-0.2-0.3-0.3-0.6-0.4-0.8c-1.8-3.6-3.8-7.7-5.5-11.4c-0.6-1.3-0.7-1.3-2.2-1.3c-0.3,0-0.5,0-0.8,0
			c0,0,0,0-0.1,0h-3.8c-0.3,0-0.6,0.2-0.6,0.6v24.6c0,0.3,0.2,0.6,0.6,0.6h5.6c0.3,0,0.6-0.2,0.6-0.6v-8.8V207
			c0.2,0,0.5,0.4,0.6,0.6c1.4,2.8,2.8,5.7,4.2,8.5c0.4,0.7,0.8,1.2,1.7,1.2c0.9,0,1.5-0.4,1.9-1.2c1.5-3.1,3-6.1,4.5-9.2
			c0.1-0.1,0.2-0.1,0.2-0.1v3.5v8.8c0,0.3,0.2,0.6,0.6,0.6h5.6c0.3,0,0.6-0.2,0.6-0.6v-24.6C211.1,194.2,210.9,194,210.6,194z"/>
	</g>
</g>
<g class="st1">
	<polygon class="st11" points="61.6,130.3 35.4,145.4 35.4,175.5 61.6,190.6 87.8,175.5 87.8,145.4 	"/>
	<path class="st11" d="M91.3,210.7c-0.2-0.3-0.4-1.3-1-1.3c-0.6,0-0.9,0.8-1.7,2.9l-2,4.8c-0.7,1.6-1,2.8-3.2,2.8
		c-1.9,0-2.4-1.1-3-2.6l-6.2-15.1c-0.9-2.3-2.3-1.1-2.3-3.1c0-2.2,4.5-2.3,6.1-2.3c4.9,0,5.7,0.7,5.7,2c0,1-0.8,1.1-0.8,2.1
		c0,0.9,1,3.2,1.2,3.6c0.2,0.5,0.9,2.7,1.7,2.7c0.9,0,1.6-2.3,1.7-2.8c0.1-0.2,0.4-1,0.4-1.2c0-0.3-0.7-2.3-1.7-2.8
		c-0.7-0.3-1.2-0.8-1.2-1.6c0-0.2-0.5-2.1,6.5-2.1c6.5,0,6.4,1.4,6.4,2c0,1.1-1.5,1.3-1.5,2.1c0,0.9,1.1,2.8,1.5,3.5
		c0.2,0.5,1,2.5,1.8,2.5c1.1,0,2.6-5.4,2.6-5.9c0-1.4-2.2-0.7-2.2-2.4c0-1.9,3.4-1.8,4.8-1.8c1.4,0,3.9,0.2,3.9,1.9
		c0,1.6-1.4,1.1-2.3,3.4l-5.8,14.3c-0.7,1.7-1.5,3.4-3.4,3.4c-1.7,0-2.2-0.9-2.8-2.2L91.3,210.7L91.3,210.7L91.3,210.7z"/>
	<g class="st2">
		<path class="st10" d="M143.8,196.8c-7.3,0-13,4.8-13,11.5c0,6.8,5.5,11.7,12.6,11.7c6.8,0,13.2-4.5,13.2-11.3
			C156.6,204.5,153.1,196.8,143.8,196.8z"/>
		<path class="st10" d="M145.1,215.3c-3.6,0-5.6-7.6-5.6-10.3c0-1.6,0.9-3.4,2.8-3.4c3.9,0,5.7,7.4,5.7,10.3
			C148,213.6,147.2,215.3,145.1,215.3z"/>
	</g>
	<g class="st2">
		<path class="st10" d="M173.7,172.9c6.9,0,9.2-4,9.2-7.2c0-2.7-2.4-4.5-3.8-5c-0.3-0.2-0.7-0.3-0.7-0.7s0.3-0.6,0.6-0.9
			c1.2-0.9,1.9-2.5,1.9-4c0-2.5-1.6-5.3-7.9-5.3c-0.8,0-1.6,0.1-2.4,0.1c-0.8,0.1-1.6,0.1-2.4,0.1c-1.3,0-2.5-0.1-3.8-0.1
			c-1.3,0-2.5-0.1-3.8-0.1c-1.1,0-2.5,0.6-2.5,1.8c0,2.2,2.9,0,2.7,4.9l-0.4,9.4c-0.2,5.4-2.4,3.4-2.4,5.4c0,1.1,1.2,1.7,2.3,1.7
			c1.2,0,2.4,0,3.5-0.1c1.2,0,2.4-0.1,3.5-0.1c1.1,0,2.1,0,3.1,0.1C171.4,172.8,172.5,172.9,173.7,172.9z"/>
		<path class="st10" d="M170.1,153.1c1.9,0,2.4,1.8,2.4,3.3c0,1.8-0.5,3.1-2.5,3.1c-1.1,0-1-0.6-1-1.9V155
			C168.9,154,168.8,153.1,170.1,153.1z"/>
		<path class="st10" d="M168.9,165.6v-1.6c0-0.7,0.3-1.2,1.3-1.2c2.4,0,3,1.8,3,3.7c0,1.7-0.7,3-2.6,3
			C169.6,169.4,168.9,169.3,168.9,165.6z"/>
	</g>
	<g class="st2">
		<path class="st10" d="M213.1,171.2c0,1.1,1.2,1.7,2.3,1.7c1.2,0,2.4,0,3.5-0.1c1.2,0,2.4-0.1,3.5-0.1c1.1,0,2.1,0,3.1,0.1
			c1,0.1,2.1,0.1,3.2,0.1c6.9,0,9.2-4,9.2-7.2c0-2.7-2.4-4.5-3.8-5c-0.3-0.2-0.7-0.3-0.7-0.7s0.3-0.6,0.6-0.9c1.2-0.9,1.9-2.5,1.9-4
			c0-2.5-1.6-5.3-7.9-5.3c-0.8,0-1.6,0.1-2.4,0.1c-0.8,0.1-1.6,0.1-2.4,0.1c-1.3,0-2.5-0.1-3.8-0.1c-1.3,0-2.5-0.1-3.8-0.1
			c-1.1,0-2.5,0.6-2.5,1.8c0,2.2,2.9,0,2.7,4.9l-0.4,9.4C215.3,171.2,213.1,169.1,213.1,171.2z"/>
		<path class="st10" d="M228.4,166.5c0,1.7-0.7,3-2.6,3c-1.1,0-1.7-0.1-1.7-3.9v-1.6c0-0.7,0.3-1.2,1.3-1.2
			C227.8,162.7,228.4,164.5,228.4,166.5z"/>
		<path class="st10" d="M225.2,153.1c1.9,0,2.4,1.8,2.4,3.3c0,1.8-0.5,3.1-2.5,3.1c-1.1,0-1-0.6-1-1.9V155
			C224,154,223.9,153.1,225.2,153.1z"/>
	</g>
	<g class="st2">
		<path class="st10" d="M117,149.5c-7.5,0-13.3,4.9-13.3,11.8c0,6.9,5.6,11.9,12.8,11.9c7,0,13.5-4.6,13.5-11.6
			C130.1,157.4,126.5,149.5,117,149.5z"/>
		<path class="st10" d="M118.3,168.3c-3.7,0-5.8-7.8-5.8-10.5c0-1.6,1-3.5,2.9-3.5c4,0,5.9,7.6,5.9,10.5
			C121.3,166.6,120.4,168.3,118.3,168.3z"/>
	</g>
	<g class="st2">
		<path class="st10" d="M189.5,203.9v9.1c0,4.1-2.5,3-2.5,4.6c0,2.3,4.8,2.3,6.4,2.3c5.4,0,6.3-0.9,6.3-2c0-1.5-1.7-1.1-2-2.5
			c-0.2-0.9-0.2-2.2-0.2-3.1c0-2,0.3-2.1,1-2.1c1.8,0,2.4,1.4,2.8,2.9c1,4.2,1.7,7.1,7.1,7.1c3.8,0,5.3-1.3,5.3-2.5
			c0-1.9-2.2-0.2-2.6-3.1c-0.5-3.4-1.5-4.9-3.9-5.7c-0.4-0.2-0.8-0.3-0.8-0.8c0-0.4,0.2-0.5,0.5-0.6c1.9-0.9,2.8-2.7,2.8-4.6
			c0-4.2-4.4-5.8-8.2-5.8c-1.1,0-2.2,0.1-3.2,0.1c-1.1,0.1-2.2,0.1-3.2,0.1c-0.7,0-1.4-0.1-2-0.1c-0.7,0-1.4-0.1-2.1-0.1
			c-1.3,0-3.9,0.2-3.9,2C187,201,189.5,198.9,189.5,203.9z"/>
		<path class="st10" d="M197.3,205.3l0.1-3c0.1-1,0-1.7,1.3-1.7c1.9,0,2.3,1.6,2.3,3.1c0,2-0.7,3.1-2.9,3.1
			C197.1,206.8,197.2,206.1,197.3,205.3z"/>
	</g>
	<path class="st4" d="M279.3,173.1c-6.7,0-7.6-1.5-7.6-2.3c0-1.8,1.9-1.1,2.6-2.4c0.3-0.7,0.5-2.2,0.5-5.4c0-1.9-0.3-2.5-1.5-3.9
		l-3.9-4.3c-1.7-1.9-3.9-1.3-3.9-2.9c0-0.7-0.2-2.2,7.7-2.2c7.1,0,7.1,1.3,7.1,2c0,0.8-1,1.2-1,1.9c0,0.7,1.4,2.8,2.2,2.8
		c0.9,0,2.3-1.7,2.3-2.5c0-0.9-1-1-1-2.2c0-1.9,4-1.9,5.3-1.9c4.3,0,5.4,0.5,5.4,1.9c0,2.1-2.5,0.9-4.2,2.6l-4.2,4.4
		c-1.5,1.8-1.6,2.8-1.6,5c0,3,0.2,4.3,0.5,4.9c0.5,0.9,2.3,0.7,2.3,2.3C286.4,173.1,281,173.1,279.3,173.1z"/>
	<g class="st2">
		<path class="st10" d="M307.7,196.9l-10.9,0c-1.2,0-3.1,0.2-3.1,1.7c0,2.1,2.5,0.5,2.4,3.8l-0.3,11c-0.1,4.6-2.8,2.1-2.8,4.4
			c0,1.3,1.4,1.8,2.6,1.8c1,0,1.9,0,2.8-0.1c0.9,0,1.9-0.1,2.9-0.1c0.9,0,1.8,0,2.9,0.1c1,0.1,2.2,0.1,3.7,0.1
			c8.5,0,12.1-5.5,12.2-11.4C320.1,202.4,317.1,196.9,307.7,196.9z"/>
		<path class="st10" d="M306.2,216.2c-1.8,0-2.1-0.7-2.1-2.3l0-11.9c0-1.2,0.1-1.7,1.5-1.7c2.6,0,5.5,1.2,5.5,8.6
			C311.2,212.2,310.4,216.2,306.2,216.2z"/>
	</g>
	<path class="st4" d="M260.4,219.8c-0.6-0.1-1.4-0.2-2.5-0.2h-11.2c-1.1,0-2.8,0.1-2.8-1.4c0-2,2.6-0.3,2.7-4
		c0.1-2.3,0.1-4.4,0.1-6.2c0-1.9-0.2-3.7-0.2-5.5c-0.1-2.7-3-1.3-3-3.1c0-2.3,5.3-2.4,6.9-2.4c6.7,0.2,7,1.1,7,2.2
		c0,1.8-2.6,0.4-2.6,3.4v10.1c0,2.3,0.4,3.4,2.8,3.4c5.7,0,3.8-4.4,5.9-4.4c1.5,0,2.1,1.5,2.1,2.7c0,2.5-1.9,5.7-3.4,5.7
		C261.4,220,261,219.9,260.4,219.8z"/>
	<path class="st2" d="M65.4,164.4c0-1.7-0.4-1.7-2.1-1.7c-4.8,0-4.3,0.1-4.4,3.1c0,4.5,2.1,2.7,2.1,4.8c0,2.3-5,2.4-6.7,2.4
		c-1.6,0-6.3-0.1-6.3-2.3c0-0.7,0.5-1.1,1.1-1.4c1.2-0.6,1.7-0.5,1.7-7.3c0-8.7-0.1-7.9-1.4-8.6c-0.5-0.3-1.1-0.6-1.1-1.2
		c0-2.5,5.7-2.8,7.6-2.8c1.4,0,5.4,0.2,5.4,2.1c0,1-0.6,1.4-1.4,1.8c-0.9,0.5-1.1,0.8-1.1,3.7c0,1.8,0.9,1.6,2.5,1.6h1.7
		c2.3,0,2.2-0.3,2.2-1.3c0-3.5-0.6-3.8-1-4c-0.7-0.4-1.3-0.7-1.3-1.5c0-0.6-0.1-2.4,6.7-2.4c1.6,0,6.2,0,6.2,2.3
		c0,0.7-0.4,1.2-1.1,1.5c-1,0.4-1.4,0.3-1.4,5.5l0,8.5c0,1,0.1,1.5,1.1,2c0.7,0.4,1.2,0.6,1.2,1.4c0,0.8-0.1,2.4-6.8,2.4
		c-1.5,0-5.9,0-5.9-2.2C62.8,168.2,65.4,171,65.4,164.4z M143.9,177.9l26.1,15.1v30.1l-26.1,15.1l-26.2-15.1V193L143.9,177.9z
		 M143.8,196.8c-7.3,0-13,4.8-13,11.5c0,6.8,5.5,11.7,12.6,11.7c6.8,0,13.2-4.5,13.2-11.3C156.6,204.5,153.1,196.8,143.8,196.8z
		 M168.9,157.6c0,1.3-0.1,1.9,1,1.9c2.1,0,2.5-1.4,2.5-3.1c0-1.5-0.5-3.3-2.4-3.3c-1.3,0-1.1,1-1.1,1.9V157.6z M170.3,162.7
		c-1.1,0-1.3,0.5-1.3,1.2v1.6c0,3.8,0.7,3.9,1.7,3.9c2,0,2.6-1.3,2.6-3C173.3,164.5,172.7,162.7,170.3,162.7z M197.2,175.7
		l-26.2,15.1l-26.2-15.1v-30.1l26.2-15.1l26.2,15.1V175.7z M182.8,165.6c0-2.7-2.4-4.5-3.8-5c-0.3-0.2-0.7-0.3-0.7-0.7
		s0.3-0.6,0.6-0.9c1.2-0.9,1.9-2.5,1.9-4c0-2.5-1.6-5.3-7.9-5.3c-0.8,0-1.6,0.1-2.4,0.1c-0.8,0.1-1.6,0.1-2.4,0.1
		c-1.3,0-2.5-0.1-3.8-0.1c-1.3,0-2.5-0.1-3.8-0.1c-1.1,0-2.5,0.6-2.5,1.8c0,2.2,2.9,0,2.7,4.9l-0.4,9.4c-0.2,5.4-2.4,3.4-2.4,5.4
		c0,1.1,1.2,1.7,2.3,1.7c1.2,0,2.4,0,3.5-0.1c1.2,0,2.4-0.1,3.5-0.1c1.1,0,2.1,0,3.1,0.1c1,0.1,2.1,0.1,3.3,0.1
		C180.5,172.9,182.8,168.9,182.8,165.6z M198.2,206.8c2.2,0,2.9-1.1,2.9-3.1c0-1.6-0.4-3.1-2.3-3.1c-1.2,0-1.2,0.7-1.3,1.7l-0.1,3
		C197.2,206.1,197.1,206.8,198.2,206.8z M198.1,177.9l26.2,15.1v30.1l-26.2,15.1L172,223.1V193L198.1,177.9z M198.3,197.1
		c-1.1,0.1-2.2,0.1-3.2,0.1c-0.7,0-1.4-0.1-2-0.1c-0.7,0-1.4-0.1-2.1-0.1c-1.3,0-3.9,0.2-3.9,2c0,2,2.5-0.1,2.5,4.9v9.1
		c0,4.1-2.5,3-2.5,4.6c0,2.3,4.8,2.3,6.4,2.3c5.4,0,6.3-0.9,6.3-2c0-1.5-1.7-1.1-2-2.5c-0.2-0.9-0.2-2.2-0.2-3.1c0-2,0.3-2.1,1-2.1
		c1.8,0,2.4,1.4,2.8,2.9c1,4.2,1.7,7.1,7.1,7.1c3.8,0,5.3-1.3,5.3-2.5c0-1.9-2.2-0.2-2.6-3.1c-0.5-3.4-1.5-4.9-3.9-5.7
		c-0.4-0.2-0.8-0.3-0.8-0.8c0-0.4,0.2-0.5,0.5-0.6c1.9-0.9,2.8-2.7,2.8-4.6c0-4.2-4.4-5.8-8.2-5.8
		C200.5,197,199.4,197.1,198.3,197.1z M143,175.7l-26.2,15.1l-26.2-15.1v-30.1l26.2-15.1l26.2,15.1V175.7z M130.1,161.6
		c0-4.2-3.6-12.1-13.1-12.1c-7.5,0-13.3,4.9-13.3,11.8c0,6.9,5.6,11.9,12.8,11.9C123.6,173.2,130.1,168.6,130.1,161.6z M139.5,205
		c0,2.7,2,10.3,5.6,10.3c2,0,2.9-1.7,2.9-3.4c0-2.9-1.8-10.3-5.7-10.3C140.4,201.6,139.5,203.4,139.5,205z M115.4,154.3
		c-1.9,0-2.9,1.9-2.9,3.5c0,2.8,2.1,10.5,5.8,10.5c2.1,0,3-1.7,3-3.5C121.3,161.9,119.4,154.3,115.4,154.3z M305.7,200.3
		c-1.4,0-1.5,0.5-1.5,1.7l0,11.9c0,1.6,0.3,2.3,2.1,2.3c4.2,0,5-4.1,5-7.3C311.2,201.5,308.3,200.4,305.7,200.3z M252.4,177.9
		l26.2,15.1v30.1l-26.2,15.1l-26.2-15.1V193L252.4,177.9z M250.3,196.9c-1.6,0-6.9,0.1-6.9,2.4c0,1.8,3,0.4,3,3.1
		c0.1,1.8,0.2,3.6,0.2,5.5c0,1.9,0,3.9-0.1,6.2c-0.1,3.7-2.7,2-2.7,4c0,1.5,1.7,1.4,2.8,1.4h11.2c1.1,0,1.9,0.1,2.5,0.2
		c0.6,0.1,1.1,0.2,1.7,0.2c1.5,0,3.4-3.2,3.4-5.7c0-1.2-0.6-2.7-2.1-2.7c-2.1,0-0.2,4.4-5.9,4.4c-2.4,0-2.8-1.1-2.8-3.4v-10.1
		c0-3,2.6-1.6,2.6-3.4C257.4,198,257,197.1,250.3,196.9z M251.5,175.7l-26.2,15.1l-26.2-15.1v-30.1l26.2-15.1l26.2,15.1V175.7z
		 M237.9,165.6c0-2.7-2.4-4.5-3.8-5c-0.3-0.2-0.7-0.3-0.7-0.7s0.3-0.6,0.6-0.9c1.2-0.9,1.9-2.5,1.9-4c0-2.5-1.6-5.3-7.9-5.3
		c-0.8,0-1.6,0.1-2.4,0.1c-0.8,0.1-1.6,0.1-2.4,0.1c-1.3,0-2.5-0.1-3.8-0.1c-1.3,0-2.5-0.1-3.8-0.1c-1.1,0-2.5,0.6-2.5,1.8
		c0,2.2,2.9,0,2.7,4.9l-0.4,9.4c-0.2,5.4-2.4,3.4-2.4,5.4c0,1.1,1.2,1.7,2.3,1.7c1.2,0,2.4,0,3.5-0.1c1.2,0,2.4-0.1,3.5-0.1
		c1.1,0,2.1,0,3.1,0.1c1,0.1,2.1,0.1,3.2,0.1C235.6,172.9,237.9,168.9,237.9,165.6z M225.4,162.7c-1.1,0-1.3,0.5-1.3,1.2v1.6
		c0,3.8,0.6,3.9,1.7,3.9c1.9,0,2.6-1.3,2.6-3C228.4,164.5,227.8,162.7,225.4,162.7z M224,157.6c0,1.3-0.1,1.9,1,1.9
		c2.1,0,2.5-1.4,2.5-3.1c0-1.5-0.5-3.3-2.4-3.3c-1.3,0-1.1,1-1.1,1.9V157.6z M305.7,175.7l-26.2,15.1l-26.2-15.1v-30.1l26.2-15.1
		l26.2,15.1V175.7z M293.6,151.5c0-1.4-1.1-1.9-5.4-1.9c-1.3,0-5.3,0-5.3,1.9c0,1.2,1,1.3,1,2.2c0,0.7-1.4,2.5-2.3,2.5
		c-0.8,0-2.2-2-2.2-2.8c0-0.7,1-1,1-1.9c0-0.7,0.1-2-7.1-2c-8,0-7.7,1.5-7.7,2.2c0,1.6,2.2,1.1,3.9,2.9l3.9,4.3
		c1.2,1.5,1.5,2.1,1.5,3.9c0,3.2-0.2,4.7-0.5,5.4c-0.6,1.3-2.6,0.7-2.6,2.4c0,0.9,0.9,2.3,7.6,2.3c1.7,0,7.1,0,7.1-2.3
		c0-1.5-1.8-1.3-2.3-2.3c-0.3-0.6-0.5-1.9-0.5-4.9c0-2.3,0.1-3.3,1.6-5l4.2-4.4C291.2,152.4,293.6,153.6,293.6,151.5z M333.1,192.9
		L333,223l-26.2,15l-26.2-15.1l0.1-30.2l26.2-15L333.1,192.9z M320.1,208.1c0-5.7-3-11.2-12.3-11.2l-10.9,0c-1.2,0-3.1,0.2-3.1,1.7
		c0,2.1,2.5,0.5,2.4,3.8l-0.3,11c-0.1,4.6-2.8,2.1-2.8,4.4c0,1.3,1.4,1.8,2.6,1.8c1,0,1.9,0,2.8-0.1c0.9,0,1.9-0.1,2.9-0.1
		c0.9,0,1.8,0,2.9,0.1c1,0.1,2.2,0.1,3.7,0.1C316.4,219.6,320.1,214,320.1,208.1z M115.8,193v30.1l-26.2,15.1l-26.2-15.1V193
		l26.2-15.1L115.8,193z M108.6,198.9c0-1.8-2.5-1.9-3.9-1.9c-1.4,0-4.8-0.1-4.8,1.8c0,1.7,2.2,1,2.2,2.4c0,0.4-1.4,5.9-2.6,5.9
		c-0.8,0-1.5-2-1.8-2.5c-0.3-0.7-1.5-2.7-1.5-3.5c0-0.8,1.5-1.1,1.5-2.1c0-0.5,0.1-2-6.4-2c-7,0-6.5,1.9-6.5,2.1
		c0,0.8,0.6,1.2,1.2,1.6c1,0.5,1.7,2.5,1.7,2.8c0,0.2-0.3,1.1-0.4,1.2c-0.2,0.5-0.9,2.8-1.7,2.8c-0.8,0-1.5-2.2-1.7-2.7
		c-0.1-0.4-1.2-2.7-1.2-3.6c0-1,0.8-1.1,0.8-2.1c0-1.3-0.8-2-5.7-2c-1.5,0-6.1,0.1-6.1,2.3c0,1.9,1.3,0.8,2.3,3.1l6.2,15.1
		c0.6,1.5,1.1,2.6,3,2.6c2.2,0,2.5-1.2,3.2-2.8l2-4.8c0.9-2,1.1-2.9,1.7-2.9c0.5,0,0.8,1,1,1.3l3.1,7c0.6,1.3,1.1,2.2,2.8,2.2
		c1.9,0,2.7-1.7,3.4-3.4l5.8-14.3C107.2,200,108.6,200.4,108.6,198.9z"/>
</g>
<image style="display:none;overflow:visible;" width="1293" height="563" xlink:href="E:\HOBBYWORLD\##LOGOS\CROWD\CR_Logo_with_back.png"  transform="matrix(0.2302 0 0 0.2302 35.4331 119.453)">
</image>
<image style="display:none;overflow:visible;" width="1200" height="1634" xlink:href="Likee.svg.png"  transform="matrix(0.1475 0 0 0.1475 95.7777 63.7795)">
</image>
<image style="display:none;overflow:visible;" width="600" height="600" xlink:href="VK.com-logo.svg.png"  transform="matrix(0.4285 0 0 0.4285 55.815 55.7393)">
</image>
<image style="display:none;overflow:visible;" width="1200" height="1200" xlink:href="VK.com-logo.svg (1).png"  transform="matrix(0.2126 0 0 0.2126 57.4278 58.2913)">
</image>
<image style="display:none;overflow:visible;" width="1049" height="1049" xlink:href="Instagram-v051916-s.png"  transform="matrix(0.2351 0 0 0.2351 60.9449 60.9449)">
</image>
<image style="display:none;overflow:visible;" width="512" height="512" xlink:href="загруженное.png"  transform="matrix(0.609 0 0 0.609 28.3465 28.3465)">
</image>
<image style="display:none;overflow:visible;" width="512" height="512" xlink:href="загруженное (1).png"  transform="matrix(0.609 0 0 0.609 28.3465 28.3465)">
</image>
<image style="display:none;overflow:visible;" width="512" height="512" xlink:href="загруженное (2).png"  transform="matrix(0.609 0 0 0.609 28.3465 28.3465)">
</image>
<image style="display:none;overflow:visible;" width="1067" height="1067" xlink:href="E:\HOBBYWORLD\##LOGOS\MOSIGRA\лого пнг без_Монтажная область 1.png"  transform="matrix(0.2657 0 0 0.2657 42.5197 42.5197)">
</image>
<image style="overflow:visible;" width="636" height="608" xlink:href="E:\HOBBYWORLD\##LOGOS\MF\Квадратный\Mirf_Short_Logo.png"  transform="matrix(0.3788 0 0 0.3788 63.7795 69.0833)">
</image>
<image style="display:none;overflow:visible;" width="1200" height="1200" xlink:href="y9gyD5X23QdN+.png"  transform="matrix(0.2126 0 0 0.2126 56.6929 56.6929)">
</image>
<image style="display:none;overflow:visible;" width="1680" height="1680" xlink:href="Yandex_Zen_logo_icon.png"  transform="matrix(0.1434 0 0 0.1434 63.7795 63.7795)">
</image>
<g class="st1">
	<g class="st2">
		<defs>
			<path id="SVGID_1_" d="M338.3,175.3h-31.2c-3.1,0-5.7-2.5-5.7-5.7v-17.5c0-3.1,2.5-5.7,5.7-5.7h31.2c3.1,0,5.7,2.5,5.7,5.7v17.5
				C343.9,172.8,341.4,175.3,338.3,175.3z"/>
		</defs>
		<clipPath id="SVGID_00000093885194759463968640000017954732931120770715_">
			<use xlink:href="#SVGID_1_"  style="overflow:visible;"/>
		</clipPath>
		<g style="clip-path:url(#SVGID_00000093885194759463968640000017954732931120770715_);">
			
				<image style="overflow:visible;" width="512" height="512" xlink:href="загруженное.png"  transform="matrix(9.175301e-02 0 0 9.175301e-02 299.1939 137.4244)">
			</image>
		</g>
	</g>
	<g class="st2">
		<g>
			<polygon class="st8" points="24.6,145.5 24.6,175.8 50.8,191 77.1,175.8 77.1,145.5 50.8,130.3 			"/>
			<polygon class="st9" points="295,175.8 295,145.5 268.7,130.3 242.4,145.5 242.4,175.8 268.7,191 			"/>
			<polygon class="st9" points="240.5,175.8 240.5,145.5 214.2,130.3 188,145.5 188,175.8 214.2,191 			"/>
			<polygon class="st9" points="186,175.8 186,145.5 159.8,130.3 133.5,145.5 133.5,175.8 159.8,191 			"/>
			<polygon class="st9" points="79,145.5 79,175.8 105.3,191 131.6,175.8 131.6,145.5 105.3,130.3 			"/>
			<polygon class="st9" points="322.2,223 322.2,192.7 295.9,177.5 269.7,192.7 269.7,223 295.9,238.2 			"/>
			<polygon class="st9" points="267.7,223 267.7,192.7 241.5,177.5 215.2,192.7 215.2,223 241.5,238.2 			"/>
			<polygon class="st9" points="213.3,223 213.3,192.7 187,177.5 160.7,192.7 160.7,223 187,238.2 			"/>
			<polygon class="st9" points="106.3,192.7 106.3,223 132.5,238.2 158.8,223 158.8,192.7 132.5,177.5 			"/>
			<polygon class="st9" points="51.8,192.7 51.8,223 78.1,238.2 104.3,223 104.3,192.7 78.1,177.5 			"/>
			<path class="st9" d="M55.4,148.8v9.2c0,0.3-0.2,0.6-0.6,0.6h-8.1c-0.3,0-0.6-0.2-0.6-0.6v-9.2c0-0.3-0.2-0.6-0.6-0.6h-5.6
				c-0.3,0-0.6,0.2-0.6,0.6v24.6c0,0.3,0.2,0.6,0.6,0.6h5.6c0.3,0,0.6-0.2,0.6-0.6v-8.8c0-0.3,0.2-0.6,0.6-0.6h8.1
				c0.3,0,0.6,0.2,0.6,0.6v8.8c0,0.3,0.2,0.6,0.6,0.6h5.6c0.3,0,0.6-0.2,0.6-0.6v-24.6c0-0.3-0.2-0.6-0.6-0.6H56
				C55.7,148.3,55.4,148.5,55.4,148.8z"/>
			<path class="st10" d="M106,148h-1.3c-6.4,0-11.6,5.2-11.6,11.6v3.1c0,6.4,5.2,11.6,11.6,11.6h1.3c6.4,0,11.6-5.2,11.6-11.6v-3.1
				C117.6,153.2,112.4,148,106,148z M110.9,162.7c0,2.9-2.4,5.3-5.3,5.3H105c-2.9,0-5.3-2.4-5.3-5.3v-3.2c0-2.9,2.4-5.3,5.3-5.3h0.6
				c2.9,0,5.3,2.4,5.3,5.3V162.7z"/>
			<path class="st10" d="M281,148.3h-6.3c-0.2,0-0.3,0.1-0.4,0.2l-5.3,10.1c-0.1,0.2-0.5,0.2-0.6,0l-5.3-10.1
				c-0.1-0.2-0.2-0.2-0.4-0.2h-6.3c-0.4,0-0.6,0.4-0.4,0.7l9.3,17.1c0,0.1,0.1,0.1,0.1,0.2v7.2c0,0.3,0.2,0.5,0.5,0.5h5.8
				c0.3,0,0.5-0.2,0.5-0.5v-7.1c0-0.1,0-0.2,0.1-0.2l9.4-17.3C281.6,148.6,281.4,148.3,281,148.3z"/>
			<path class="st10" d="M250.5,199.2v-4.7c0-0.3-0.3-0.6-0.6-0.6h-10.7h-6.1c-0.3,0-0.6,0.3-0.6,0.6v5.3v4.5v5.4v4v5.3
				c0,0.3,0.3,0.6,0.6,0.6h6.1h10.7c0.3,0,0.6-0.3,0.6-0.6v-4.7c0-0.3-0.3-0.6-0.6-0.6h-10c-0.3,0-0.6-0.3-0.6-0.6v-2.8
				c0-0.3,0.3-0.6,0.6-0.6h7.2c0.3,0,0.6-0.3,0.6-0.6V205c0-0.3-0.3-0.6-0.6-0.6h-7.2c-0.3,0-0.6-0.3-0.6-0.6v-3.3
				c0-0.3,0.3-0.6,0.6-0.6h10C250.2,199.8,250.5,199.6,250.5,199.2z"/>
			<path class="st10" d="M286.4,216l3.1-4c0.2-0.3,0.7-0.4,1-0.1c0.8,0.6,2.4,1.7,4,1.9c3,0.5,4.1-0.7,4.3-1.6c0.2-1.2-1.1-1.9-2-2
				c-1-0.2-2.5-0.4-4.3-0.9c-7.3-1.9-6.7-10-2.4-13.6c3.7-2.7,9.6-2.2,13.3,0.6c0.2,0.2,0.4,0.3,0.5,0.4c0.2,0.2,0.2,0.5,0.1,0.7
				l-3.2,4.3c-0.2,0.3-0.6,0.3-0.9,0.1c-0.7-0.5-2-1.4-3.5-1.4c-2.3,0-2.5,1.2-2.5,1.2s-0.5,1.4,1.2,2c1.7,0.6,4.3,0.7,6,1.5
				c1.8,0.8,4.7,2.1,4.7,7c0,4.9-4.4,6.9-4.4,6.9s-7.2,3.7-14.7-1.8C286.1,216.9,286.1,216.4,286.4,216z"/>
			<path class="st8" d="M89.2,212c0,6.1-6.7,8.6-10.8,8.4c-5-0.3-9.8-3.2-11-8.8c-0.7-3.3-0.8-6.6,0.3-9.9c1.6-4.8,5.2-7.3,10.1-7.9
				c3.3-0.4,6.3,0.3,9,2.3c0.8,0.6,0.8,0.8,0.2,1.5c-0.9,1.1-1.8,2.3-2.6,3.4c-0.5,0.6-0.9,0.7-1.5,0.2c-1.4-1-2.9-1.4-4.6-1.1
				c-2.4,0.4-4,2.1-4.3,4.6c-0.2,1.7-0.2,3.6,0.1,5.3c0.8,4.4,5.6,5.1,8.6,2.9c0.2-0.1,0.3-0.2,0.3-0.8c0-0.3,0-1.1,0-1.2
				c0-0.1,0-0.3-0.3-0.3c-1,0-2,0-2.7,0c-0.6,0-0.9-0.3-0.9-0.9c0-1,0-2,0-3c0-0.7,0.3-1,0.9-1c3,0,5.3,0,8.3,0c0.7,0,0.9,0.3,0.9,1
				C89.2,208.5,89.2,210.1,89.2,212z"/>
			<path class="st10" d="M124,208.9c-1.1,3.3-2.2,6.5-3.3,9.8c-0.1,0.4-0.1,0.6-0.1,0.7c0.1,0.1,0.3,0.2,0.6,0.2c0.9,0,1.7,0,2.6,0
				c0.3,0,0.7,0,1,0c0.7,0,1.3,0,2,0c0,0,0,0,0,0c0.5,0,0.8-0.2,0.9-0.7c0.1-0.4,0.2-0.8,0.3-1.2c0.1-0.5,0.3-1,0.4-1.5
				c0.1-0.5,0.4-0.8,0.9-0.8c0,0,0,0,0,0c2,0,4.2,0,6.6,0c0,0,0,0,0,0c0.5,0,0.8,0.2,0.9,0.7c0.1,0.6,0.3,1.2,0.5,1.8
				c0.1,0.3,0.2,0.6,0.3,0.9c0.1,0.5,0.4,0.7,0.9,0.7c0,0,0,0,0,0c1.8,0,3.6,0,5.6,0c0,0,0,0,0,0c0.3,0,0.5-0.1,0.6-0.2
				c0.1-0.1,0.1-0.3,0-0.6c-0.2-0.5-0.3-1-0.5-1.6l-1.9-5.6c-1.8-5.5-3.7-11-5.5-16.5c-0.3-0.8-0.6-1-1.3-1c-0.7,0-1.3,0-2,0
				c-0.6,0-1.2,0-1.8,0c-0.7,0-1.4,0-2.1,0c-0.6,0-1,0.2-1.1,0.8C127.2,199.6,125.6,204.2,124,208.9z M132.6,201.8
				c0.1-0.3,0.4-0.4,0.5,0c0.1,0.3,2,7.5,2,7.5c0.1,0.3-0.1,0.5-0.4,0.5H131c-0.3,0-0.5-0.3-0.4-0.5
				C130.6,209.2,132.5,202.1,132.6,201.8z"/>
			<path class="st10" d="M169.9,162.4c-0.6-1.1-1.5-2-2.3-2.6c-0.3-0.2-0.4-0.7-0.2-1c1.4-2.4,1.5-4.8-0.3-7.5
				c-2-2.9-5.9-2.9-5.9-2.9H157h-1.2h-4.2c-0.4,0-0.6,0.3-0.6,0.6v24.4c0,0.4,0.3,0.6,0.6,0.6h5.1h0.3c0.9,0,3.5,0,5.8,0
				c2.9,0,5.3-1.6,6.5-3.3C171.2,167.7,170.8,164.1,169.9,162.4z M157.6,154.7c0-0.2,0.2-0.4,0.4-0.4h1.7c0.7,0,2,0.4,2,1.9
				c0,0.1,0,0.6,0,0.7c0,0.6-0.3,1.8-1.9,1.8H158c-0.2,0-0.4-0.2-0.4-0.5V154.7z M163.6,166.2c0,0.6-0.3,1.8-1.9,1.8H158
				c-0.2,0-0.4-0.2-0.4-0.4V164c0-0.2,0.2-0.4,0.4-0.4h3.5c0.7,0,2,0.4,2,1.9C163.6,165.6,163.6,166.1,163.6,166.2z"/>
			<path class="st10" d="M225.3,162.4c-0.6-1.1-1.5-2-2.3-2.6c-0.3-0.2-0.4-0.7-0.2-1c1.4-2.4,1.5-4.8-0.3-7.5
				c-2-2.9-5.9-2.9-5.9-2.9h-4.2h-1.2h-4.2c-0.4,0-0.6,0.3-0.6,0.6v24.4c0,0.4,0.3,0.6,0.6,0.6h5.1h0.3c0.9,0,3.5,0,5.8,0
				c2.9,0,5.3-1.6,6.5-3.3C226.6,167.7,226.2,164.1,225.3,162.4z M213,154.7c0-0.2,0.2-0.4,0.4-0.4h1.7c0.7,0,2,0.4,2,1.9
				c0,0.1,0,0.6,0,0.7c0,0.6-0.3,1.8-1.9,1.8h-1.8c-0.2,0-0.4-0.2-0.4-0.5V154.7z M218.9,166.2c0,0.6-0.3,1.8-1.9,1.8h-3.7
				c-0.2,0-0.4-0.2-0.4-0.4V164c0-0.2,0.2-0.4,0.4-0.4h3.5c0.7,0,2,0.4,2,1.9C218.9,165.6,218.9,166.1,218.9,166.2z"/>
			<path class="st10" d="M199.7,194h-3.8c0,0,0,0-0.1,0c-0.4,0-0.7,0-1.1,0c-1.1,0-1.4,0.1-1.8,1.1c-1.8,3.8-3.7,7.8-5.5,11.5
				c-0.1,0.3-0.3,0.5-0.5,0.8c-0.2-0.3-0.3-0.6-0.4-0.8c-1.8-3.6-3.8-7.7-5.5-11.4c-0.6-1.3-0.7-1.3-2.2-1.3c-0.3,0-0.5,0-0.8,0
				c0,0,0,0-0.1,0h-3.8c-0.3,0-0.6,0.2-0.6,0.6v24.6c0,0.3,0.2,0.6,0.6,0.6h5.6c0.3,0,0.6-0.2,0.6-0.6v-8.8V207
				c0.2,0,0.5,0.4,0.6,0.6c1.4,2.8,2.8,5.7,4.2,8.5c0.4,0.7,0.8,1.2,1.7,1.2c0.9,0,1.5-0.4,1.9-1.2c1.5-3.1,3-6.1,4.5-9.2
				c0.1-0.1,0.2-0.1,0.2-0.1v3.5v8.8c0,0.3,0.2,0.6,0.6,0.6h5.6c0.3,0,0.6-0.2,0.6-0.6v-24.6C200.3,194.2,200,194,199.7,194z"/>
		</g>
	</g>
</g>
<g class="st1">
	<g class="st2">
		<defs>
			<path id="SVGID_00000085933155403998564830000002663265689275455378_" d="M338.3,175.3h-31.2c-3.1,0-5.7-2.5-5.7-5.7v-17.5
				c0-3.1,2.5-5.7,5.7-5.7h31.2c3.1,0,5.7,2.5,5.7,5.7v17.5C343.9,172.8,341.4,175.3,338.3,175.3z"/>
		</defs>
		<clipPath id="SVGID_00000070803889055041183280000012421421063803472556_">
			<use xlink:href="#SVGID_00000085933155403998564830000002663265689275455378_"  style="overflow:visible;"/>
		</clipPath>
		<g style="clip-path:url(#SVGID_00000070803889055041183280000012421421063803472556_);">
			
				<image style="overflow:visible;" width="512" height="512" xlink:href="загруженное (1).png"  transform="matrix(9.175301e-02 0 0 9.175301e-02 299.1939 137.4244)">
			</image>
		</g>
	</g>
	<g class="st2">
		<g>
			<polygon class="st8" points="24.6,145.5 24.6,175.8 50.8,191 77.1,175.8 77.1,145.5 50.8,130.3 			"/>
			<polygon class="st9" points="295,175.8 295,145.5 268.7,130.3 242.4,145.5 242.4,175.8 268.7,191 			"/>
			<polygon class="st9" points="240.5,175.8 240.5,145.5 214.2,130.3 188,145.5 188,175.8 214.2,191 			"/>
			<polygon class="st9" points="186,175.8 186,145.5 159.8,130.3 133.5,145.5 133.5,175.8 159.8,191 			"/>
			<polygon class="st9" points="79,145.5 79,175.8 105.3,191 131.6,175.8 131.6,145.5 105.3,130.3 			"/>
			<polygon class="st9" points="322.2,223 322.2,192.7 295.9,177.5 269.7,192.7 269.7,223 295.9,238.2 			"/>
			<polygon class="st9" points="267.7,223 267.7,192.7 241.5,177.5 215.2,192.7 215.2,223 241.5,238.2 			"/>
			<polygon class="st9" points="213.3,223 213.3,192.7 187,177.5 160.7,192.7 160.7,223 187,238.2 			"/>
			<polygon class="st9" points="106.3,192.7 106.3,223 132.5,238.2 158.8,223 158.8,192.7 132.5,177.5 			"/>
			<polygon class="st9" points="51.8,192.7 51.8,223 78.1,238.2 104.3,223 104.3,192.7 78.1,177.5 			"/>
			<path class="st9" d="M55.4,148.8v9.2c0,0.3-0.2,0.6-0.6,0.6h-8.1c-0.3,0-0.6-0.2-0.6-0.6v-9.2c0-0.3-0.2-0.6-0.6-0.6h-5.6
				c-0.3,0-0.6,0.2-0.6,0.6v24.6c0,0.3,0.2,0.6,0.6,0.6h5.6c0.3,0,0.6-0.2,0.6-0.6v-8.8c0-0.3,0.2-0.6,0.6-0.6h8.1
				c0.3,0,0.6,0.2,0.6,0.6v8.8c0,0.3,0.2,0.6,0.6,0.6h5.6c0.3,0,0.6-0.2,0.6-0.6v-24.6c0-0.3-0.2-0.6-0.6-0.6H56
				C55.7,148.3,55.4,148.5,55.4,148.8z"/>
			<path class="st10" d="M106,148h-1.3c-6.4,0-11.6,5.2-11.6,11.6v3.1c0,6.4,5.2,11.6,11.6,11.6h1.3c6.4,0,11.6-5.2,11.6-11.6v-3.1
				C117.6,153.2,112.4,148,106,148z M110.9,162.7c0,2.9-2.4,5.3-5.3,5.3H105c-2.9,0-5.3-2.4-5.3-5.3v-3.2c0-2.9,2.4-5.3,5.3-5.3h0.6
				c2.9,0,5.3,2.4,5.3,5.3V162.7z"/>
			<path class="st10" d="M281,148.3h-6.3c-0.2,0-0.3,0.1-0.4,0.2l-5.3,10.1c-0.1,0.2-0.5,0.2-0.6,0l-5.3-10.1
				c-0.1-0.2-0.2-0.2-0.4-0.2h-6.3c-0.4,0-0.6,0.4-0.4,0.7l9.3,17.1c0,0.1,0.1,0.1,0.1,0.2v7.2c0,0.3,0.2,0.5,0.5,0.5h5.8
				c0.3,0,0.5-0.2,0.5-0.5v-7.1c0-0.1,0-0.2,0.1-0.2l9.4-17.3C281.6,148.6,281.4,148.3,281,148.3z"/>
			<path class="st10" d="M250.5,199.2v-4.7c0-0.3-0.3-0.6-0.6-0.6h-10.7h-6.1c-0.3,0-0.6,0.3-0.6,0.6v5.3v4.5v5.4v4v5.3
				c0,0.3,0.3,0.6,0.6,0.6h6.1h10.7c0.3,0,0.6-0.3,0.6-0.6v-4.7c0-0.3-0.3-0.6-0.6-0.6h-10c-0.3,0-0.6-0.3-0.6-0.6v-2.8
				c0-0.3,0.3-0.6,0.6-0.6h7.2c0.3,0,0.6-0.3,0.6-0.6V205c0-0.3-0.3-0.6-0.6-0.6h-7.2c-0.3,0-0.6-0.3-0.6-0.6v-3.3
				c0-0.3,0.3-0.6,0.6-0.6h10C250.2,199.8,250.5,199.6,250.5,199.2z"/>
			<path class="st10" d="M286.4,216l3.1-4c0.2-0.3,0.7-0.4,1-0.1c0.8,0.6,2.4,1.7,4,1.9c3,0.5,4.1-0.7,4.3-1.6c0.2-1.2-1.1-1.9-2-2
				c-1-0.2-2.5-0.4-4.3-0.9c-7.3-1.9-6.7-10-2.4-13.6c3.7-2.7,9.6-2.2,13.3,0.6c0.2,0.2,0.4,0.3,0.5,0.4c0.2,0.2,0.2,0.5,0.1,0.7
				l-3.2,4.3c-0.2,0.3-0.6,0.3-0.9,0.1c-0.7-0.5-2-1.4-3.5-1.4c-2.3,0-2.5,1.2-2.5,1.2s-0.5,1.4,1.2,2c1.7,0.6,4.3,0.7,6,1.5
				c1.8,0.8,4.7,2.1,4.7,7c0,4.9-4.4,6.9-4.4,6.9s-7.2,3.7-14.7-1.8C286.1,216.9,286.1,216.4,286.4,216z"/>
			<path class="st8" d="M89.2,212c0,6.1-6.7,8.6-10.8,8.4c-5-0.3-9.8-3.2-11-8.8c-0.7-3.3-0.8-6.6,0.3-9.9c1.6-4.8,5.2-7.3,10.1-7.9
				c3.3-0.4,6.3,0.3,9,2.3c0.8,0.6,0.8,0.8,0.2,1.5c-0.9,1.1-1.8,2.3-2.6,3.4c-0.5,0.6-0.9,0.7-1.5,0.2c-1.4-1-2.9-1.4-4.6-1.1
				c-2.4,0.4-4,2.1-4.3,4.6c-0.2,1.7-0.2,3.6,0.1,5.3c0.8,4.4,5.6,5.1,8.6,2.9c0.2-0.1,0.3-0.2,0.3-0.8c0-0.3,0-1.1,0-1.2
				c0-0.1,0-0.3-0.3-0.3c-1,0-2,0-2.7,0c-0.6,0-0.9-0.3-0.9-0.9c0-1,0-2,0-3c0-0.7,0.3-1,0.9-1c3,0,5.3,0,8.3,0c0.7,0,0.9,0.3,0.9,1
				C89.2,208.5,89.2,210.1,89.2,212z"/>
			<path class="st10" d="M124,208.9c-1.1,3.3-2.2,6.5-3.3,9.8c-0.1,0.4-0.1,0.6-0.1,0.7c0.1,0.1,0.3,0.2,0.6,0.2c0.9,0,1.7,0,2.6,0
				c0.3,0,0.7,0,1,0c0.7,0,1.3,0,2,0c0,0,0,0,0,0c0.5,0,0.8-0.2,0.9-0.7c0.1-0.4,0.2-0.8,0.3-1.2c0.1-0.5,0.3-1,0.4-1.5
				c0.1-0.5,0.4-0.8,0.9-0.8c0,0,0,0,0,0c2,0,4.2,0,6.6,0c0,0,0,0,0,0c0.5,0,0.8,0.2,0.9,0.7c0.1,0.6,0.3,1.2,0.5,1.8
				c0.1,0.3,0.2,0.6,0.3,0.9c0.1,0.5,0.4,0.7,0.9,0.7c0,0,0,0,0,0c1.8,0,3.6,0,5.6,0c0,0,0,0,0,0c0.3,0,0.5-0.1,0.6-0.2
				c0.1-0.1,0.1-0.3,0-0.6c-0.2-0.5-0.3-1-0.5-1.6l-1.9-5.6c-1.8-5.5-3.7-11-5.5-16.5c-0.3-0.8-0.6-1-1.3-1c-0.7,0-1.3,0-2,0
				c-0.6,0-1.2,0-1.8,0c-0.7,0-1.4,0-2.1,0c-0.6,0-1,0.2-1.1,0.8C127.2,199.6,125.6,204.2,124,208.9z M132.6,201.8
				c0.1-0.3,0.4-0.4,0.5,0c0.1,0.3,2,7.5,2,7.5c0.1,0.3-0.1,0.5-0.4,0.5H131c-0.3,0-0.5-0.3-0.4-0.5
				C130.6,209.2,132.5,202.1,132.6,201.8z"/>
			<path class="st10" d="M169.9,162.4c-0.6-1.1-1.5-2-2.3-2.6c-0.3-0.2-0.4-0.7-0.2-1c1.4-2.4,1.5-4.8-0.3-7.5
				c-2-2.9-5.9-2.9-5.9-2.9H157h-1.2h-4.2c-0.4,0-0.6,0.3-0.6,0.6v24.4c0,0.4,0.3,0.6,0.6,0.6h5.1h0.3c0.9,0,3.5,0,5.8,0
				c2.9,0,5.3-1.6,6.5-3.3C171.2,167.7,170.8,164.1,169.9,162.4z M157.6,154.7c0-0.2,0.2-0.4,0.4-0.4h1.7c0.7,0,2,0.4,2,1.9
				c0,0.1,0,0.6,0,0.7c0,0.6-0.3,1.8-1.9,1.8H158c-0.2,0-0.4-0.2-0.4-0.5V154.7z M163.6,166.2c0,0.6-0.3,1.8-1.9,1.8H158
				c-0.2,0-0.4-0.2-0.4-0.4V164c0-0.2,0.2-0.4,0.4-0.4h3.5c0.7,0,2,0.4,2,1.9C163.6,165.6,163.6,166.1,163.6,166.2z"/>
			<path class="st10" d="M225.3,162.4c-0.6-1.1-1.5-2-2.3-2.6c-0.3-0.2-0.4-0.7-0.2-1c1.4-2.4,1.5-4.8-0.3-7.5
				c-2-2.9-5.9-2.9-5.9-2.9h-4.2h-1.2h-4.2c-0.4,0-0.6,0.3-0.6,0.6v24.4c0,0.4,0.3,0.6,0.6,0.6h5.1h0.3c0.9,0,3.5,0,5.8,0
				c2.9,0,5.3-1.6,6.5-3.3C226.6,167.7,226.2,164.1,225.3,162.4z M213,154.7c0-0.2,0.2-0.4,0.4-0.4h1.7c0.7,0,2,0.4,2,1.9
				c0,0.1,0,0.6,0,0.7c0,0.6-0.3,1.8-1.9,1.8h-1.8c-0.2,0-0.4-0.2-0.4-0.5V154.7z M218.9,166.2c0,0.6-0.3,1.8-1.9,1.8h-3.7
				c-0.2,0-0.4-0.2-0.4-0.4V164c0-0.2,0.2-0.4,0.4-0.4h3.5c0.7,0,2,0.4,2,1.9C218.9,165.6,218.9,166.1,218.9,166.2z"/>
			<path class="st10" d="M199.7,194h-3.8c0,0,0,0-0.1,0c-0.4,0-0.7,0-1.1,0c-1.1,0-1.4,0.1-1.8,1.1c-1.8,3.8-3.7,7.8-5.5,11.5
				c-0.1,0.3-0.3,0.5-0.5,0.8c-0.2-0.3-0.3-0.6-0.4-0.8c-1.8-3.6-3.8-7.7-5.5-11.4c-0.6-1.3-0.7-1.3-2.2-1.3c-0.3,0-0.5,0-0.8,0
				c0,0,0,0-0.1,0h-3.8c-0.3,0-0.6,0.2-0.6,0.6v24.6c0,0.3,0.2,0.6,0.6,0.6h5.6c0.3,0,0.6-0.2,0.6-0.6v-8.8V207
				c0.2,0,0.5,0.4,0.6,0.6c1.4,2.8,2.8,5.7,4.2,8.5c0.4,0.7,0.8,1.2,1.7,1.2c0.9,0,1.5-0.4,1.9-1.2c1.5-3.1,3-6.1,4.5-9.2
				c0.1-0.1,0.2-0.1,0.2-0.1v3.5v8.8c0,0.3,0.2,0.6,0.6,0.6h5.6c0.3,0,0.6-0.2,0.6-0.6v-24.6C200.3,194.2,200,194,199.7,194z"/>
		</g>
	</g>
</g>
<g class="st1">
	<g class="st2">
		<defs>
			<path id="SVGID_00000084491202084319582680000009018054780825363885_" d="M338.3,175.3h-31.2c-3.1,0-5.7-2.5-5.7-5.7v-17.5
				c0-3.1,2.5-5.7,5.7-5.7h31.2c3.1,0,5.7,2.5,5.7,5.7v17.5C343.9,172.8,341.4,175.3,338.3,175.3z"/>
		</defs>
		<clipPath id="SVGID_00000147912625166265679110000007017510410460294038_">
			<use xlink:href="#SVGID_00000084491202084319582680000009018054780825363885_"  style="overflow:visible;"/>
		</clipPath>
		<g style="clip-path:url(#SVGID_00000147912625166265679110000007017510410460294038_);">
			
				<image style="overflow:visible;" width="512" height="512" xlink:href="загруженное (2).png"  transform="matrix(9.175301e-02 0 0 9.175301e-02 299.1939 137.4244)">
			</image>
		</g>
	</g>
	<g class="st2">
		<g>
			<polygon class="st8" points="24.6,145.5 24.6,175.8 50.8,191 77.1,175.8 77.1,145.5 50.8,130.3 			"/>
			<polygon class="st9" points="295,175.8 295,145.5 268.7,130.3 242.4,145.5 242.4,175.8 268.7,191 			"/>
			<polygon class="st9" points="240.5,175.8 240.5,145.5 214.2,130.3 188,145.5 188,175.8 214.2,191 			"/>
			<polygon class="st9" points="186,175.8 186,145.5 159.8,130.3 133.5,145.5 133.5,175.8 159.8,191 			"/>
			<polygon class="st9" points="79,145.5 79,175.8 105.3,191 131.6,175.8 131.6,145.5 105.3,130.3 			"/>
			<polygon class="st9" points="322.2,223 322.2,192.7 295.9,177.5 269.7,192.7 269.7,223 295.9,238.2 			"/>
			<polygon class="st9" points="267.7,223 267.7,192.7 241.5,177.5 215.2,192.7 215.2,223 241.5,238.2 			"/>
			<polygon class="st9" points="213.3,223 213.3,192.7 187,177.5 160.7,192.7 160.7,223 187,238.2 			"/>
			<polygon class="st9" points="106.3,192.7 106.3,223 132.5,238.2 158.8,223 158.8,192.7 132.5,177.5 			"/>
			<polygon class="st9" points="51.8,192.7 51.8,223 78.1,238.2 104.3,223 104.3,192.7 78.1,177.5 			"/>
			<path class="st9" d="M55.4,148.8v9.2c0,0.3-0.2,0.6-0.6,0.6h-8.1c-0.3,0-0.6-0.2-0.6-0.6v-9.2c0-0.3-0.2-0.6-0.6-0.6h-5.6
				c-0.3,0-0.6,0.2-0.6,0.6v24.6c0,0.3,0.2,0.6,0.6,0.6h5.6c0.3,0,0.6-0.2,0.6-0.6v-8.8c0-0.3,0.2-0.6,0.6-0.6h8.1
				c0.3,0,0.6,0.2,0.6,0.6v8.8c0,0.3,0.2,0.6,0.6,0.6h5.6c0.3,0,0.6-0.2,0.6-0.6v-24.6c0-0.3-0.2-0.6-0.6-0.6H56
				C55.7,148.3,55.4,148.5,55.4,148.8z"/>
			<path class="st10" d="M106,148h-1.3c-6.4,0-11.6,5.2-11.6,11.6v3.1c0,6.4,5.2,11.6,11.6,11.6h1.3c6.4,0,11.6-5.2,11.6-11.6v-3.1
				C117.6,153.2,112.4,148,106,148z M110.9,162.7c0,2.9-2.4,5.3-5.3,5.3H105c-2.9,0-5.3-2.4-5.3-5.3v-3.2c0-2.9,2.4-5.3,5.3-5.3h0.6
				c2.9,0,5.3,2.4,5.3,5.3V162.7z"/>
			<path class="st10" d="M281,148.3h-6.3c-0.2,0-0.3,0.1-0.4,0.2l-5.3,10.1c-0.1,0.2-0.5,0.2-0.6,0l-5.3-10.1
				c-0.1-0.2-0.2-0.2-0.4-0.2h-6.3c-0.4,0-0.6,0.4-0.4,0.7l9.3,17.1c0,0.1,0.1,0.1,0.1,0.2v7.2c0,0.3,0.2,0.5,0.5,0.5h5.8
				c0.3,0,0.5-0.2,0.5-0.5v-7.1c0-0.1,0-0.2,0.1-0.2l9.4-17.3C281.6,148.6,281.4,148.3,281,148.3z"/>
			<path class="st10" d="M250.5,199.2v-4.7c0-0.3-0.3-0.6-0.6-0.6h-10.7h-6.1c-0.3,0-0.6,0.3-0.6,0.6v5.3v4.5v5.4v4v5.3
				c0,0.3,0.3,0.6,0.6,0.6h6.1h10.7c0.3,0,0.6-0.3,0.6-0.6v-4.7c0-0.3-0.3-0.6-0.6-0.6h-10c-0.3,0-0.6-0.3-0.6-0.6v-2.8
				c0-0.3,0.3-0.6,0.6-0.6h7.2c0.3,0,0.6-0.3,0.6-0.6V205c0-0.3-0.3-0.6-0.6-0.6h-7.2c-0.3,0-0.6-0.3-0.6-0.6v-3.3
				c0-0.3,0.3-0.6,0.6-0.6h10C250.2,199.8,250.5,199.6,250.5,199.2z"/>
			<path class="st10" d="M286.4,216l3.1-4c0.2-0.3,0.7-0.4,1-0.1c0.8,0.6,2.4,1.7,4,1.9c3,0.5,4.1-0.7,4.3-1.6c0.2-1.2-1.1-1.9-2-2
				c-1-0.2-2.5-0.4-4.3-0.9c-7.3-1.9-6.7-10-2.4-13.6c3.7-2.7,9.6-2.2,13.3,0.6c0.2,0.2,0.4,0.3,0.5,0.4c0.2,0.2,0.2,0.5,0.1,0.7
				l-3.2,4.3c-0.2,0.3-0.6,0.3-0.9,0.1c-0.7-0.5-2-1.4-3.5-1.4c-2.3,0-2.5,1.2-2.5,1.2s-0.5,1.4,1.2,2c1.7,0.6,4.3,0.7,6,1.5
				c1.8,0.8,4.7,2.1,4.7,7c0,4.9-4.4,6.9-4.4,6.9s-7.2,3.7-14.7-1.8C286.1,216.9,286.1,216.4,286.4,216z"/>
			<path class="st8" d="M89.2,212c0,6.1-6.7,8.6-10.8,8.4c-5-0.3-9.8-3.2-11-8.8c-0.7-3.3-0.8-6.6,0.3-9.9c1.6-4.8,5.2-7.3,10.1-7.9
				c3.3-0.4,6.3,0.3,9,2.3c0.8,0.6,0.8,0.8,0.2,1.5c-0.9,1.1-1.8,2.3-2.6,3.4c-0.5,0.6-0.9,0.7-1.5,0.2c-1.4-1-2.9-1.4-4.6-1.1
				c-2.4,0.4-4,2.1-4.3,4.6c-0.2,1.7-0.2,3.6,0.1,5.3c0.8,4.4,5.6,5.1,8.6,2.9c0.2-0.1,0.3-0.2,0.3-0.8c0-0.3,0-1.1,0-1.2
				c0-0.1,0-0.3-0.3-0.3c-1,0-2,0-2.7,0c-0.6,0-0.9-0.3-0.9-0.9c0-1,0-2,0-3c0-0.7,0.3-1,0.9-1c3,0,5.3,0,8.3,0c0.7,0,0.9,0.3,0.9,1
				C89.2,208.5,89.2,210.1,89.2,212z"/>
			<path class="st10" d="M124,208.9c-1.1,3.3-2.2,6.5-3.3,9.8c-0.1,0.4-0.1,0.6-0.1,0.7c0.1,0.1,0.3,0.2,0.6,0.2c0.9,0,1.7,0,2.6,0
				c0.3,0,0.7,0,1,0c0.7,0,1.3,0,2,0c0,0,0,0,0,0c0.5,0,0.8-0.2,0.9-0.7c0.1-0.4,0.2-0.8,0.3-1.2c0.1-0.5,0.3-1,0.4-1.5
				c0.1-0.5,0.4-0.8,0.9-0.8c0,0,0,0,0,0c2,0,4.2,0,6.6,0c0,0,0,0,0,0c0.5,0,0.8,0.2,0.9,0.7c0.1,0.6,0.3,1.2,0.5,1.8
				c0.1,0.3,0.2,0.6,0.3,0.9c0.1,0.5,0.4,0.7,0.9,0.7c0,0,0,0,0,0c1.8,0,3.6,0,5.6,0c0,0,0,0,0,0c0.3,0,0.5-0.1,0.6-0.2
				c0.1-0.1,0.1-0.3,0-0.6c-0.2-0.5-0.3-1-0.5-1.6l-1.9-5.6c-1.8-5.5-3.7-11-5.5-16.5c-0.3-0.8-0.6-1-1.3-1c-0.7,0-1.3,0-2,0
				c-0.6,0-1.2,0-1.8,0c-0.7,0-1.4,0-2.1,0c-0.6,0-1,0.2-1.1,0.8C127.2,199.6,125.6,204.2,124,208.9z M132.6,201.8
				c0.1-0.3,0.4-0.4,0.5,0c0.1,0.3,2,7.5,2,7.5c0.1,0.3-0.1,0.5-0.4,0.5H131c-0.3,0-0.5-0.3-0.4-0.5
				C130.6,209.2,132.5,202.1,132.6,201.8z"/>
			<path class="st10" d="M169.9,162.4c-0.6-1.1-1.5-2-2.3-2.6c-0.3-0.2-0.4-0.7-0.2-1c1.4-2.4,1.5-4.8-0.3-7.5
				c-2-2.9-5.9-2.9-5.9-2.9H157h-1.2h-4.2c-0.4,0-0.6,0.3-0.6,0.6v24.4c0,0.4,0.3,0.6,0.6,0.6h5.1h0.3c0.9,0,3.5,0,5.8,0
				c2.9,0,5.3-1.6,6.5-3.3C171.2,167.7,170.8,164.1,169.9,162.4z M157.6,154.7c0-0.2,0.2-0.4,0.4-0.4h1.7c0.7,0,2,0.4,2,1.9
				c0,0.1,0,0.6,0,0.7c0,0.6-0.3,1.8-1.9,1.8H158c-0.2,0-0.4-0.2-0.4-0.5V154.7z M163.6,166.2c0,0.6-0.3,1.8-1.9,1.8H158
				c-0.2,0-0.4-0.2-0.4-0.4V164c0-0.2,0.2-0.4,0.4-0.4h3.5c0.7,0,2,0.4,2,1.9C163.6,165.6,163.6,166.1,163.6,166.2z"/>
			<path class="st10" d="M225.3,162.4c-0.6-1.1-1.5-2-2.3-2.6c-0.3-0.2-0.4-0.7-0.2-1c1.4-2.4,1.5-4.8-0.3-7.5
				c-2-2.9-5.9-2.9-5.9-2.9h-4.2h-1.2h-4.2c-0.4,0-0.6,0.3-0.6,0.6v24.4c0,0.4,0.3,0.6,0.6,0.6h5.1h0.3c0.9,0,3.5,0,5.8,0
				c2.9,0,5.3-1.6,6.5-3.3C226.6,167.7,226.2,164.1,225.3,162.4z M213,154.7c0-0.2,0.2-0.4,0.4-0.4h1.7c0.7,0,2,0.4,2,1.9
				c0,0.1,0,0.6,0,0.7c0,0.6-0.3,1.8-1.9,1.8h-1.8c-0.2,0-0.4-0.2-0.4-0.5V154.7z M218.9,166.2c0,0.6-0.3,1.8-1.9,1.8h-3.7
				c-0.2,0-0.4-0.2-0.4-0.4V164c0-0.2,0.2-0.4,0.4-0.4h3.5c0.7,0,2,0.4,2,1.9C218.9,165.6,218.9,166.1,218.9,166.2z"/>
			<path class="st10" d="M199.7,194h-3.8c0,0,0,0-0.1,0c-0.4,0-0.7,0-1.1,0c-1.1,0-1.4,0.1-1.8,1.1c-1.8,3.8-3.7,7.8-5.5,11.5
				c-0.1,0.3-0.3,0.5-0.5,0.8c-0.2-0.3-0.3-0.6-0.4-0.8c-1.8-3.6-3.8-7.7-5.5-11.4c-0.6-1.3-0.7-1.3-2.2-1.3c-0.3,0-0.5,0-0.8,0
				c0,0,0,0-0.1,0h-3.8c-0.3,0-0.6,0.2-0.6,0.6v24.6c0,0.3,0.2,0.6,0.6,0.6h5.6c0.3,0,0.6-0.2,0.6-0.6v-8.8V207
				c0.2,0,0.5,0.4,0.6,0.6c1.4,2.8,2.8,5.7,4.2,8.5c0.4,0.7,0.8,1.2,1.7,1.2c0.9,0,1.5-0.4,1.9-1.2c1.5-3.1,3-6.1,4.5-9.2
				c0.1-0.1,0.2-0.1,0.2-0.1v3.5v8.8c0,0.3,0.2,0.6,0.6,0.6h5.6c0.3,0,0.6-0.2,0.6-0.6v-24.6C200.3,194.2,200,194,199.7,194z"/>
		</g>
	</g>
</g>
</svg>
